<svg version="2.0" width="2000" height="2000" viewBox="0,0,256,256" xmlns="http://www.w3.org/2000/svg">
  <style>
    /* theme-a red-brown-white */
    :root {
      --red: #dd5937;
      --black: #5d3f36;
      --border: #faead2;
      --border-width: 4;
    }

    .tile-a {
      stroke-width: var(--border-width);
      stroke: var(--border);
      fill: var(--black);
    }
    .tile-b {
      stroke-width: var(--border-width);
      stroke: var(--border);
      fill: var(--red);
    }
  </style>
  <defs>
    <path id="jigsaw" d="M 0 0 h 35
      a 20 20 0 1 1 30 0
      h 35 v 35
      a 20 20 0 1 0 0 30
      v 35 h -35
      a 20 20 0 1 1 -30 0
      h -35 v -35
      a 20 20 0 1 0 0 -30
      Z
    "/>
    <rect id="jigsaw_fix" width="100" height="100" stroke="none"/>
    <pattern id="tile" width="128" height="128" viewBox="0,0,200,200" patternUnits="userSpaceOnUse">
      <g id="tile" fill="#f5f1f2" stroke="#ed1e4f" stroke-width="2">
        <rect width="100" height="100" x="-50" class="tile-b"/>
        <rect width="100" height="100" x="150" y="100" class="tile-b"/>
        <rect width="100" height="100" x="100" y="-50" class="tile-a"/>
        <rect width="100" height="100" x="0" y="150" class="tile-a"/>
        <use class="tile-a" href="#jigsaw" x="0" y="0"/>
        <use class="tile-a" href="#jigsaw" x="100" y="100"/>
        <use class="tile-b" href="#jigsaw" x="100" y="0" transform="rotate(90,150,50)"/>
        <use class="tile-b" href="#jigsaw" x="0" y="100" transform="rotate(90,50,150)"/>
      </g>
    </pattern>
  </defs>
  <rect width="200%" height="200%" x="-128" y="-128" transform="rotate(-20,128,128)" fill="url(#tile)"/>
</svg>
